<?xml version="1.0" encoding="utf-8"?>
<!-- Generator: Adobe Illustrator 28.3.0, SVG Export Plug-In . SVG Version: 6.00 Build 0)  -->
<svg version="1.1" id="Layer_1" xmlns="http://www.w3.org/2000/svg" xmlns:xlink="http://www.w3.org/1999/xlink" x="0px" y="0px"
	 viewBox="0 0 1461 808.7" style="enable-background:new 0 0 1461 808.7;" xml:space="preserve">
<style type="text/css">
	.st0{fill:#262626;}
	.st1{fill-rule:evenodd;clip-rule:evenodd;fill:#262626;}
</style>
<g id="Layer_2_00000118358169529950922130000006393979179008539037_">
	<g id="Layer_1-2">
		<path class="st0" d="M302.2,0.3c-3.5-4.7-8.2,3.2-4.7,8c26.5,34.9,20.1,81.9,0.6,120.8c-27-25.7-58.4-39.4-90.5-39.4
			c-92.8,0-168.1,112.1-168.1,250.5s75.2,250.7,168.1,250.7c7.6-0.1,15.2-0.8,22.8-2.3c44.4-8.9,39.8,54.6,5.9,57.7
			c-12.6,1.3-26-1.5-38.2,0.2c-39.2,5.2-34.6,62.9-6.7,84.5l5.1,3.8c18.2,13.7,39.3,29.7,31.2,66c-0.6,2.8,0.4,5.7,2.2,6.7
			c0,0,0,0,0.1,0c1.8,0.9,3.8-0.5,4.5-3.2c10.2-45-14-63.3-34.8-78.9c-1.7-1.4-3.4-2.7-5-3.8c-21.2-16.5-28-60.2,4-64.4
			c12.1-1.6,25.5,1.1,38.1-0.2c43.8-4,46.7-89.7-7.4-78.8c-7.2,1.5-14.5,2.2-21.8,2.2c-88.8,0-160.9-107.4-160.9-240
			c0-132.4,72.1-239.8,160.9-239.8c30.5,0,60.3,12.8,86,37.1c-20.6,38.5-46.2,79.6-37.3,133.5c12.7,76.1,85.1,81.4,96.3-3.1
			C359.9,213.5,331.8,164,304,135C325.9,91.6,331.4,38.9,302.2,0.3z M299.7,143.3c25.5,26.6,52.5,72.3,46,122.4
			c-9.7,73.1-71.5,67.6-82.4,2.5C255,218.4,280.6,179,299.7,143.3L299.7,143.3z"/>
		<path class="st1" d="M178.2,77.1c3.1,183,25.7,503.7,31.6,640.4C215.6,580.7,238.2,260,241.3,77C242.1,29.9,177.5,29.9,178.2,77.1
			z M197.2,126.4l-0.6-42.8c-0.4-22.2,26.8-22.2,26.2,0l-0.5,42.8C222,145.2,197.6,145.2,197.2,126.4L197.2,126.4z"/>
		<path class="st0" d="M417.8,519.7c-8.3-11.1-19.1-26.5-32.2-46.3c-91.2-9-136.8-28.1-136.8-57.2c0-6.6,3.4-12,10.1-16.1
			c6.8-4.2,17.1-6.2,31-6.2c34.7,0,69.2,22,103.5,66.1c34.7,3.5,74,5.2,118.1,5.2h5.7c44.4-26.7,85.6-53.6,123.8-80.6
			c15.6-28.4,29.1-51.9,40.6-70.5c12.6-20.2,26.5-39.6,41.6-58c32.3-40.9,66.3-61.4,102-61.4c9.3,0,14,4.2,14,12.5
			c0,20.1-16.6,46.5-49.9,79.1s-77.5,67.6-132.7,105.1c-16.7,31.9-29.2,55.1-37.5,69.7c48.5-3.8,83.6-9.7,105.1-17.7h1.6
			c1.4,0,2.1,1,2.1,2.9s-1.2,4.6-3.6,8.1c-26,8-63.4,14.2-112.3,18.7c-18.7,32.3-36.9,57.3-54.4,75.2
			c-17.5,17.9-35.1,26.8-52.8,26.8c-28.4,0-55.3-15.8-80.6-47.3c-49.6,25-93.5,44.1-131.6,57.2c-5.8,1.8-11.9,2.7-17.9,2.6
			c-6.8,0-10.1-2.6-10.1-7.8c0-2.8,1.4-5.3,4.2-7.5c2.8-2.2,6.4-3.4,10.9-3.4C307.2,568.6,353.3,552.3,417.8,519.7z M273.7,414.1
			c0,19.8,33.5,34.2,100.4,43.2c-27.1-36.1-54.3-54.1-81.7-54.1C280,403.2,273.7,406.8,273.7,414.1z M432.9,512.4
			c21.5-11.4,42.1-22.9,61.9-34.3h-2.1c-30.2,0-59.3-1-87.4-3.1C418.5,493.4,427.7,505.9,432.9,512.4z M517.1,478.1
			c-26.4,14.9-52.4,29-78,42.1c23.2,28.8,44.4,43.2,63.5,43.2c14.2,0,28.3-7.6,42.4-22.9s29.6-37.3,46.5-66.1
			C570.4,476.2,545.6,477.4,517.1,478.1L517.1,478.1z M626.9,411c-18.7,12.5-47.9,30.5-87.4,54.1c26.7-0.7,46.3-1.5,58.8-2.6
			C604.9,451.1,614.4,433.9,626.9,411z M810.5,207.1c-23.9,0-48,15.9-72.3,47.9c-20.1,27-42.1,62.8-66.1,107.1
			c43.7-32.2,78.7-61.6,105.1-88.1s39.5-47,39.5-61.6C816.7,208.9,814.7,207.1,810.5,207.1L810.5,207.1z"/>
		<path class="st0" d="M772,508.8c-2.1,0-3.1-0.8-3.1-2.3s1.2-3.4,3.6-5.5c11.4-9.3,17.2-17.8,17.2-25.5c0-4.9-4.3-7.6-13-8.3
			c-15.6,0.3-34.2,11.6-55.9,33.8c-21.7,22.2-32.5,38.8-32.5,49.9c0,3.8,2.2,5.7,6.5,5.7c4.3,0,10.1-3,17.4-8.8
			c6.6-4.2,18.9-14.6,36.9-31.2c4.2-4.2,8.2-6.2,12-6.2c4.9,0,7.3,2.3,7.3,6.8c0.1,1.5-0.5,3-1.6,4.2c-1,1-2.9,3.2-5.7,6.5
			c-2.8,3.3-5.2,6.3-7.3,9.1c-6.2,9-9.4,14.9-9.4,17.7c0,6.9,2.8,10.4,8.3,10.4c7.3,0,21-6.7,41.1-20c20.1-13.3,38.5-26.8,55.1-40.3
			l25-19.8c1.9-1.5,4.3-2.5,6.8-2.6c2.1,0,3.1,1.2,3.1,3.6v1.1c-27,22.7-55.2,43.9-84.6,63.4c-29.7,19.8-49.2,29.7-58.5,29.7
			c-11.1,0-16.6-5.9-16.6-17.7c0-2.7,0.5-5.3,1.6-7.8c0.8-1.6,1.3-3.4,1.6-5.2c0.1-0.8-0.3-1.6-1-2.1c-1,0-7.7,4.7-20,14
			s-23,14-32.2,14c-9.2,0-13.8-4.9-13.8-14.6c0-9.7,6.5-22.8,19.5-39.3c13-16.5,30.4-31.5,52.3-45c21.8-13.5,43.2-20.3,64-20.3
			c4.4-0.1,8.7,1.1,12.2,3.6c3.3,2.4,4.9,6.2,4.9,11.2c0,5-5.1,12.6-15.2,22.7C787.9,503.8,779.3,508.8,772,508.8z"/>
		<path class="st0" d="M1085.1,486.4c-73.2,61-118.4,91.6-135.8,91.6c-10.1,0-15.1-4.2-15.1-12.5c0-8.3,3.7-18.2,11.2-29.7
			c6.8-10.6,14.3-20.8,22.4-30.4c7.4-8.8,11.2-14.1,11.2-15.9c0-1.7-0.5-2.6-1.6-2.6c-32.2,21.5-51.4,34.7-57.5,39.5
			s-16,12.8-29.7,23.9c-13.7,11.1-22.6,18-26.8,20.8c-4,2.7-8.7,4.2-13.5,4.2c-4.9,0-7.3-2.1-7.3-6.2c0-4.9,9.7-20.1,29.1-45.8
			c18.7-25.7,28.1-40,28.1-43.2c0-0.7-0.6-1-1.8-1s-16.2,10.6-45,31.7l-2.1-7.8c24.6-19.8,41.2-32.4,49.9-38
			c8.7-5.6,15.7-8.3,21.1-8.3c5.4,0,8.1,2.6,8.1,7.8c0,3.5-9.8,17.6-29.4,42.4c-19.6,24.8-29.4,38.1-29.4,40c0,1.9,0.6,2.9,1.8,2.9
			s21-14,59.3-41.9c38.3-27.9,61.6-41.9,70-41.9c2.6,0.1,5.1,1.1,7,2.9c2.3,1.9,3.4,3.7,3.4,5.5c0,4.2-9.2,17.9-27.6,41.4
			c-18.4,23.4-27.6,36.7-27.6,39.8c0,3.1,2.2,4.7,6.5,4.7c4.3,0,13.6-4.7,27.8-14c24.9-16.2,48.8-33.7,71.8-52.5l11.4-9.4
			c1.9-1.5,4.3-2.5,6.8-2.6c2.1,0,3.1,1,3.1,3.1L1085.1,486.4z"/>
		<path class="st0" d="M1177.7,484.9c2.8-1.7,5.1-2.6,7-2.6s2.9,1.2,2.9,3.6v1.1c-27,22.7-55.2,43.9-84.5,63.5
			c-29.6,19.7-48.4,29.6-56.4,29.6s-14.7-1.5-20-4.4c-5.4-3-8.1-6.3-8.1-10.1c-0.1-3.5,1-6.9,3.1-9.6c2.1-2.6,4-3.9,5.7-3.9
			s4.6,2.7,8.6,8.1s7.9,8.1,11.7,8.1c8,0,14.2-8.5,18.7-25.5c4.5-17,6.7-28.7,6.8-35.1c0-6.4-0.4-9.6-1.3-9.6c-0.9,0-1.7,0.4-2.3,1
			l-15.1,12l-2.1-7.8c21.8-17.3,34.5-29,38-34.9c2.1-5.5,5-8.3,8.8-8.3c2.4,0,3.6,0.9,3.6,2.6s-1.2,5.5-3.6,11.2s-5.7,18.6-9.6,38.8
			c-4,20.1-6,31.7-6,34.8s0.9,4.7,2.6,4.7c24.3-14.9,49.9-33.5,77-55.6L1177.7,484.9z"/>
		<path class="st0" d="M1231.8,508.8c-2.1,0-3.1-0.8-3.1-2.3s1.2-3.4,3.6-5.5c11.4-9.3,17.2-17.8,17.2-25.5c0-4.9-4.3-7.6-13-8.3
			c-15.6,0.3-34.2,11.6-55.9,33.8c-21.7,22.2-32.5,38.8-32.5,49.9c0,3.8,2.2,5.7,6.5,5.7c4.3,0,10.1-3,17.4-8.8
			c6.6-4.2,18.9-14.6,36.9-31.2c4.2-4.2,8.2-6.2,12-6.2c4.8,0,7.3,2.3,7.3,6.8c0.1,1.5-0.5,3-1.6,4.2c-1,1-2.9,3.2-5.7,6.5
			c-2.8,3.3-5.2,6.3-7.3,9.1c-6.2,9-9.4,14.9-9.4,17.7c0,6.9,2.8,10.4,8.3,10.4c7.3,0,21-6.7,41.1-20c20.1-13.3,38.5-26.8,55.1-40.3
			l25-19.8c1.9-1.5,4.3-2.5,6.8-2.6c2.1,0,3.1,1.2,3.1,3.6v1.1c-27,22.7-55.2,43.9-84.5,63.5c-29.7,19.7-49.2,29.6-58.6,29.6
			c-11.1,0-16.7-5.9-16.7-17.7c0-2.7,0.5-5.3,1.6-7.8c0.8-1.6,1.3-3.4,1.6-5.2c0.1-0.8-0.3-1.6-1-2.1c-1,0-7.7,4.7-20,14
			c-12.3,9.3-23,14-32.2,14c-9.2,0-13.8-4.9-13.8-14.6c0-9.7,6.5-22.8,19.5-39.3c13-16.5,30.4-31.5,52.3-45
			c21.9-13.5,43.2-20.3,64-20.3c4.4-0.1,8.7,1.1,12.2,3.6c3.3,2.4,5,6.2,5,11.2c0,5-5,12.6-15.1,22.6
			C1247.8,503.7,1239.1,508.8,1231.8,508.8z"/>
		<path class="st0" d="M383.5,699.8v-52.6h6.8v22.6h27.7v-22.6h6.8v52.6h-6.8v-23.9h-27.7v23.9L383.5,699.8z"/>
		<path class="st0" d="M477.3,699.8v-52.6h35.9v6h-29.1v16.6h24v6h-24v17.9h29.1v6L477.3,699.8z"/>
		<path class="st0" d="M560.1,699.8v-52.6H583c10.3,0,17.9,5.7,17.9,16.2c0,8.4-5.7,13.7-13.8,14.8c2.6,0.9,4.8,2.8,6,5.3l9.4,16.2
			h-8l-9.3-16.2c-2-3.5-4.8-4.8-10-4.8H567v20.9H560.1z M567,653.2v19.8h15c6.3,0,11.9-2.3,11.9-9.7c0-7.8-5.6-10.1-11.9-10.1H567z"
			/>
		<path class="st0" d="M648.2,699.8v-52.6h6.8v52.6H648.2z"/>
		<path class="st0" d="M714.8,699.8v-46.5h-16.6v-6h40v6h-16.6v46.5H714.8z"/>
		<path class="st0" d="M771.6,699.8l21.2-52.6h6.8l21.2,52.6h-7.5l-5.7-14.7h-23l-5.7,14.7H771.6z M786.9,679.1h18.3l-6.5-16.6
			l-2.6-8.2l-2.7,8.2L786.9,679.1z"/>
		<path class="st0" d="M862.3,673.4c0-15.4,8.6-27,24.5-27c11,0,18.9,5.6,22.4,15.5l-6.1,4c-1.8-7.5-7-13.1-16.2-13.1
			c-11.9,0-17.3,8.5-17.3,20.5s5.3,20.6,16.6,20.6c10.1,0,14.1-5.7,16.1-14.5h-16.1v-6h23.2v26.4h-4.2l-2.1-20.4
			c-0.4,11.7-7.1,21-19.2,21C869.8,700.4,862.3,689.3,862.3,673.4z"/>
		<path class="st0" d="M959.5,699.8v-52.6h35.9v6h-29.1v16.6h24v6h-24v17.9h29.1v6L959.5,699.8z"/>
		<path class="st0" d="M1100.3,699.8v-52.6h6.8v22.6h27.7v-22.6h6.8v52.6h-6.8v-23.9h-27.7v23.9L1100.3,699.8z"/>
		<path class="st0" d="M1193.3,677.8v-30.6h6.8v30.6c0,11.6,3.7,16.2,13.2,16.2c9.7,0,13.3-4.6,13.3-16.2v-30.6h6.8v30.6
			c0,15.5-6.1,22.8-20.1,22.8C1199.6,700.6,1193.3,693.3,1193.3,677.8z"/>
		<path class="st0" d="M1285,699.8v-52.6h22.2c10,0,15.4,5.4,15.4,13.4c0,5.7-3.7,10.7-12.5,11.7c11,1.2,14.8,6.6,14.8,13.3
			c0,8.9-6.8,14.1-18.1,14.1H1285z M1291.8,653.2v16.5h13.3c6,0,10.3-1.9,10.3-8.2s-4.4-8.2-10.7-8.2H1291.8z M1291.8,675.8v17.9
			h13.9c8.3,0,12.2-2.7,12.2-8.9s-5.1-8.9-11.9-8.9H1291.8z"/>
	</g>
</g>
</svg>
