<?xml version="1.0" encoding="UTF-8"?>
<svg id="Layer_1" data-name="Layer 1" xmlns="http://www.w3.org/2000/svg" viewBox="0 0 2446.44 649.4">
  <defs>
    <style>
      .cls-1, .cls-2 {
        fill: none;
      }

      .cls-3 {
        fill: #0e0e0d;
      }

      .cls-4 {
        fill: #f0f0ef;
      }

      .cls-5 {
        fill: #e2d3d4;
      }

      .cls-6, .cls-2 {
        stroke: #fff;
        stroke-linecap: round;
        stroke-linejoin: round;
      }

      .cls-6, .cls-7 {
        fill: #fff;
      }

      .cls-2 {
        stroke-width: 2px;
      }

      .cls-8 {
        fill: #0b0b0b;
      }

      .cls-9 {
        fill: #080808;
      }

      .cls-10 {
        fill: #9e0e26;
      }

      .cls-11 {
        fill: #0c0c0c;
      }

      .cls-12 {
        fill: #10100f;
      }

      .cls-13 {
        fill: #090909;
      }
    </style>
  </defs>
  <path class="cls-13" d="M1752.75,396.27c10.07-4.92,16.82-12.08,20.26-21.48,3.26-20.98,3.04-41.54-.66-61.68,4.52-9.22,3.31-17.52.68-27.03l4.45-34.8c-6.05-6.94-14.17-9.06-24.36-6.36l-2.89-3.83c-.4-24.83-16.16-47.15-34.37-58.76-23.67-15.08-50.57-14.93-73.89-4.78-25.48,11.43-44.74,30.78-52.99,57.84l-.12,159.73c0,13.26,7.63,19.77,20.47,27.27l-75.13,1.29c-.36-2.64-.26-4.07.28-4.46.48-.35,18.64-3.72,18.61-22.4l-.3-189.47c-.02-11.8-9.85-15.97-21.64-20.71,20.26-8.43,38.93-13.11,56.57-26.22l1.9,61.16c23.85-55.61,91.86-75.89,144.38-55.23,32.54,12.8,52.6,41.81,52.72,77.09l.48,145.71c.05,14.6,6.73,24.07,22.16,30.68-25.63,8.48-56.28-3.7-56.61-23.54Z"/>
  <path class="cls-8" d="M1926.55,403.38c-12.93-10.37-22.24-23.3-25.52-38.69,15.82-11.26,23.99,17.99,47.82,36.91,27.8,22.07,64.75,27.49,96.93,12.08,14.32-6.86,25.3-18.53,30.37-33.32,6.56-19.12-.7-37.8-16.35-49.9-12.63-9.76-26.98-15.78-42.03-21.8l-58.51-23.39c-14.62-5.84-26.67-15.19-36.56-27.66-19.97-25.19-15.67-61.31,9.03-81.99,44.01-36.87,119.24-27.91,164.23,6.93-2.5,11.26-6.67,20.02-13.64,29.28-9.41-12.42-17.45-24.48-30.2-33.41-26.8-18.77-60.82-23.3-89.81-8.42-13.45,6.9-21.89,19.13-22.86,32.41-2.7,37.08,39.26,48.44,70.41,62.15l62.46,27.49c13.2,5.81,23.89,16.56,30.31,29.72,16.57,33.96,3.66,72.53-29.32,92.1-45.18,26.81-104.89,23.09-146.77-10.5Z"/>
  <path class="cls-8" d="M1031.41,425.38c-93.78,28.09-162.53-53.1-141.75-62.67,2.4-1.11,5.4-1.14,8.11,1.84l21.04,23.12c25.46,27.98,63.37,42.1,99.54,30.96,17.71-5.45,32.38-15.93,40.12-32.03,8.56-17.81,5.59-36.53-8.13-50.87-10.07-10.52-23.21-17.27-37.05-22.69l-57.35-22.46c-15.03-5.88-28.15-13.29-40.21-23.83-25.93-22.68-27.93-60.14-4.3-85.76,39.27-42.58,122.04-33.63,169.07,1.05-2.51,12.19-5.73,21.53-13.55,30.51-24.19-47.41-86.4-67.4-127.07-36.85-10.77,8.09-15.7,19.53-15.51,32.41.91,61.04,153.42,55.17,168.26,129.44,8.32,41.61-18.13,74.92-61.22,87.82Z"/>
  <path class="cls-11" d="M382.97,493.78c-.55-9.28-2.26-18.41-4.98-27.24,2.67,8.27,4.5,16.82,5.4,25.49-.14.58-.28,1.17-.42,1.75ZM385.25,489.01c.17-1.34.3-2.67.38-4-.16,1.33-.28,2.66-.38,4Z"/>
  <path class="cls-11" d="M398.55,473.62c0,.78-.04,1.56-.1,2.33-.97,14.38-4.49,28.55-10.13,41.8-5.68,13.34-13.48,25.77-22.99,36.71s-20.7,20.39-33.18,27.75c-3.12,1.84-6.31,3.54-9.57,5.11-1.63.78-3.28,1.53-4.95,2.24-.3.13-1.78.96-1.43.03.18-.49,2.06-1.18,2.54-1.45,6.76-3.88,13.11-8.47,18.89-13.7,9.43-8.54,17.33-18.84,22.64-30.43,9.13-19.92,10.22-43.79,1.1-63.71-7.89-17.25-22.57-30.45-38.05-41.42-42.22-29.93-92.48-46.72-135.57-75.4-26.27-17.48-50.73-41.06-58.56-71.62-5.01-19.56-2.68-40.63,4.79-59.39,13.15-33.02,42.14-58.84,75.85-70.11,33.7-11.27,71.51-8.39,104.05,5.9,18.47,8.11,36.19,20.75,44.07,39.32,7.88,18.57,2.48,43.63-15.54,52.68-8.28-25.93-27.14-48.13-50.95-61.32s-52.26-17.45-79.07-12.74c-22.69,3.99-44.84,14.76-59.02,32.92-14.18,18.16-19.08,44.24-9.02,64.97,6.35,13.08,17.78,22.98,29.85,31.09,26.97,18.14,58.03,29,88.33,40.76,30.3,11.76,60.8,24.97,84.93,46.73s41.23,53.7,37.61,86c1.02-5.89,2.04-11.79,3.06-17.68.33-1.89.77-3.98,2.34-5.1,2.2-1.57,5.51-.17,6.87,2.17.97,1.67,1.22,3.62,1.22,5.58Z"/>
  <path class="cls-10" d="M171.72,202.68c-12.13,12.36-15.91,31.44-12.07,48.32,3.84,16.88,14.51,31.63,27.57,43s28.46,19.69,44.01,27.31c35.91,17.61,73.68,32.25,105.97,55.84,32.29,23.59,62.52,62.28,61.29,98.02-.34-4.12-1.33-8.37-6.56-8.31-.08,0-3.54.26-3.89,5.04-.55-1.4-.71-3.08-1.09-4.55s-.82-3.03-1.28-4.54c-.92-3-1.96-5.95-3.13-8.86-2.33-5.81-5.15-11.43-8.36-16.81s-6.85-10.59-10.79-15.52-8.25-9.67-12.79-14.11-9.35-8.66-14.35-12.6c-3.14-2.47-6.36-4.84-9.65-7.11-29.31-20.19-63.13-32.63-96.52-44.96-22.04-8.14-44.55-16.59-62.51-31.73-17.96-15.14-30.79-38.55-26.98-61.73,3.1-18.87,16.44-34.47,31.14-46.71Z"/>
  <path class="cls-1" d="M161.38,207.35c-.15,0-.3,0-.45-.02"/>
  <path class="cls-11" d="M30.73,265.38c-7.7,4.69-13.21,10.29-15.32,18.02-1.73,6.33-.06,11.85,4.56,15.87,3.69,3.21,9,4.69,15.48,2.16,1.98,4.6,2.07,9.5.56,14.47-16.94,5.5-34.03-5.57-35.82-23.69-1.46-14.8,5.56-29.33,18.89-37.57L228.56,125.2l6.63,11.77c-24.23,17.49-60.87,29.39-79.24,48.65-7.03,7.38-13.22,11.57-21.77,16.77l-103.44,62.98Z"/>
  <path class="cls-9" d="M1752.75,396.27l-2.52-155.2,20.48-1.26c3.04,2.02,5.01,7.69,11.27,7.86l-5.11,39.43c3.39,8.55,3.93,17.31-.7,26.19,6.01,17.92,2.27,35.79,1.43,53.55-.49,10.34-.59,15.24-8.9,22.43-4.48,3.87-8.01,10.01-15.94,6.98Z"/>
  <path class="cls-10" d="M241.67,136.24c-9.34-6.84-9.94-16.46-8.16-27.24,3.42-20.6,37.36-22.58,42.26-49.67,3.7-20.46-10.31-38.38-29.22-42.72-19.04-4.37-40.3,7.18-44.94,26.52-1.2,5-2.42,7-5.65,8.33-2.61,1.08-9.83.42-9.77-3.36.37-22.53,16.99-40.17,38.05-45.93,22.24-6.08,43.71.72,57.23,18.13,13.06,16.81,15.08,41.33,2.83,59.93-6.74,10.23-17.03,16.72-27.48,22.32-14.32,7.67-6.86,19.97-15.15,33.68Z"/>
  <path class="cls-3" d="M438.22,303.82c7.89-.53,13.37.02,18.16-4.47,4.2-3.94,6.36-10.62,4.1-17.56-2.09-6.42-6.76-11.73-12.72-15.29l-76.27-45.51-8.47-22.74,88.3,52.67c9.46,6.3,17.88,13.16,22.44,23.61,5.01,11.48,3.65,24.44-5.2,32.81-7.81,7.39-21.1,11.96-31.87,6.37-2.14-1.11-.78-9.72,1.53-9.91Z"/>
  <path class="cls-12" d="M293.81,152.94c-16.86-1.38-37.05-4.23-50.03-14.14,3.92-4.32,6.63-7.8,7.92-14.14l42.11,28.28Z"/>
  <rect class="cls-5" x="197.54" y="427.47" width="1.41" height="1.41" transform="translate(-244.7 265.59) rotate(-45)"/>
  <path class="cls-13" d="M1426.99,385.11l-.94-140.91c-.25-37.63-24.08-69.57-58.91-82.88-40.73-15.56-86.82-9.62-121.8,15.52-4.71,3.38-9.7,7.25-5.6,13.53,22.69-18.79,49.77-30.38,79.21-26.54,38.9,5.07,67.11,38.27,69.98,77.45l.52,78.78c-10.16-18.29-23.83-31.73-42.93-40.52-56.68-26.08-134.96-9.11-153.62,49.13-10.83,33.79,3.13,67.93,34.63,85.29,58.05,32,134.95,9.7,162.91-51.49l.67,26.78c.38,15.3,23.19,22.62,44.04,18.83-5.96-7.92-8.1-14.4-8.16-22.96ZM1380.44,370.71c-14.31,24.21-38.8,41.15-67.99,46.61-27.37,5.12-53.16-4.97-69.71-25.88-14.87-18.77-17.89-43.5-9.13-67.66,6.79-18.72,23.65-35.07,46.2-42.6,33.51-11.2,71.85-.9,95.21,25.86,16.14,18.49,17.82,42.72,5.43,63.67Z"/>
  <path class="cls-8" d="M2439.93,388.6l-.41-143.28c-.1-35.71-19.91-65.69-51.62-80.84-42.75-20.43-96.98-15.29-132.96,16.26-2.07,1.82-2.08,3.74-2.27,5.36-.15,1.29,3.01,4.62,4.52,3.25,16.78-15.31,36.94-25.6,59.87-26.57,45.96-1.94,82.17,31.31,85.32,77.16l.43,80.07c-12.88-22.34-31.27-38.65-55.93-46.54-53.62-17.15-123.27,1.62-139.48,55.56-10.49,34.9,4.76,70.31,38.21,86.98,58.73,29.27,131.72,5.52,156.93-53.66l.76,22.84c.65,19.52,20.4,25.4,42.87,23.74-3.9-6.76-6.22-12.62-6.25-20.33ZM2395.79,366.17c-16.7,31.08-49.64,52.73-87.65,51.55-25.71-.8-48.3-16.85-58.79-38.38-17.26-35.4-1.65-76,33.22-93.05,36.95-18.06,81.91-8,107.47,23.72,13.71,17.01,16.19,36.73,5.75,56.16Z"/>
  <path class="cls-4" d="M310.69,388.39l.64.53c-.18-.13-.4-.3-.64-.53Z"/>
  <path class="cls-4" d="M378.24,508.72c.54-4.01.85-8.05.93-12.09.13-6.77-.4-13.55-1.58-20.22-.46-2.6-1.02-5.18-1.68-7.74-8.79-33.98-34.55-61.64-64.53-79.88,39.42,18.13,68.04,57.88,72.71,101.02,2.34-31.48-14.2-62.12-37.41-83.51-23.21-21.39-52.52-34.86-81.86-46.51-29.34-11.65-59.47-21.95-86.44-38.34-14.04-8.53-27.53-19.14-35.03-33.76-7.65-14.9-8.22-33.04-2.51-48.78s17.42-29.05,31.78-37.66c-9.22,9.48-18.09,19.53-24.26,31.22s-9.52,25.28-7.11,38.28c4.35,23.44,25.68,39.66,46.8,50.72,31.87,16.68,66.64,26.97,99.55,41.49,32.91,14.52,65.02,34.3,84.57,64.49,3.04,4.7,5.68,9.65,7.91,14.78s4.08,10.56,5.47,16.04,2.31,11.03,2.75,16.64.39,11.13-.2,16.66-1.69,10.86-3.37,16.08-3.94,10.23-6.77,14.92c-.72,1.18-1.47,2.34-2.25,3.48-.33.47-.74,1.37-1.21,1.7-.79.54-.41-.81-.3-1.15,1.04-3.22,1.92-6.5,2.63-9.81.58-2.66,1.05-5.35,1.41-8.05Z"/>
  <path class="cls-10" d="M1303.53,334.38c9.82-4.9,19.85.47,24.23,8.99,4.41,8.57.08,19.67-9.24,23.82-8.45,3.76-18.09,1.23-23-7.34-4.7-8.18-2.37-20.29,8.01-25.47Z"/>
  <path class="cls-10" d="M2322.97,332.26c9.9-1.13,18.45,7.48,19.57,14.66,1.7,10.86-6.55,18.91-14.7,20.43-10.68,1.99-18.54-4.46-20.13-13.57-1.7-9.69,4-20.23,15.26-21.52Z"/>
  <path class="cls-10" d="M123.05,295.72c-4.31,25.71,2.61,52.53,16.01,74.89,5.82,9.72,12.97,19.03,15.46,30.08,3.86,17.12-4.24,34.59-13.72,49.36-33.94,52.88-86.92,90.24-139.75,124.25,23.36,17.08,50.8,28.56,79.37,33.2-1.79,1.45.38,4.16,2.37,5.31,29.08,16.72,61.57,27.47,94.88,31.42,6.05.72,13.99.02,15.67-5.83,21.79,5.22,43.99,8.72,66.33,10.46,8.77.68,13.94,2,18.91-5.65,5.38-8.26,6.86-19.53,7.93-29.1,7.36-65.52-13.23-133.72-55.63-184.22-18.65-22.22-41.09-40.91-61.3-61.71-20.21-20.8-38.64-44.55-46.53-72.46Z"/>
  <path class="cls-7" d="M75.85,607.99c56.22-34.34,113.47-93.31,104.35-164.35-2.08-15.81-7.42-31.03-14.77-45.16,7.64,14,13.3,29.21,15.7,45.03,10.11,66.28-38.75,123.68-89.31,159.89-4.39,3.11-8.78,6.1-13.47,8.93-1.18.71-2.72.33-3.43-.85-.74-1.21-.3-2.81.94-3.49h0Z"/>
  <path class="cls-7" d="M205.94,437.59c10.56,14.25,16.59,31.41,20.2,48.66,4.43,21.75,4.2,44.33.95,66.23-.67,3.69-1.55,9.49-2.41,13.1-1.74,8.46-4.19,17.57-6.77,25.77-5.3,16.97-12.19,33.42-20.11,49.33-.61,1.24-2.12,1.74-3.35,1.13-1.26-.62-1.75-2.17-1.1-3.41,11.29-21.31,20.51-43.79,26.73-67.1,2.64-10.47,4.95-21.59,6.09-32.31,3.91-33.92-.5-72.71-20.23-101.4h0Z"/>
  <rect class="cls-6" x="109.33" y="526.75" width="9.89" height="9.89" transform="translate(-67.4 19.1) rotate(-7.39)"/>
  <rect class="cls-6" x="94.53" y="528.67" width="9.89" height="9.89" transform="translate(-67.77 17.22) rotate(-7.39)"/>
  <rect class="cls-6" x="111.23" y="541.44" width="9.89" height="9.89" transform="translate(-69.27 19.47) rotate(-7.39)"/>
  <rect class="cls-6" x="96.44" y="543.36" width="9.89" height="9.89" transform="translate(-69.64 17.58) rotate(-7.39)"/>
  <rect class="cls-6" x="172.83" y="563.94" width="9.89" height="9.89" transform="translate(-71.65 27.57) rotate(-7.39)"/>
  <rect class="cls-6" x="158.03" y="565.86" width="9.89" height="9.89" transform="translate(-72.02 25.69) rotate(-7.39)"/>
  <rect class="cls-6" x="174.73" y="578.63" width="9.89" height="9.89" transform="translate(-73.53 27.94) rotate(-7.39)"/>
  <rect class="cls-6" x="159.94" y="580.54" width="9.89" height="9.89" transform="translate(-73.9 26.05) rotate(-7.39)"/>
  <rect class="cls-6" x="144.76" y="483.43" width="7.08" height="7.08" transform="translate(-104.52 45.14) rotate(-12.84)"/>
  <rect class="cls-6" x="134.34" y="485.8" width="7.08" height="7.08" transform="translate(-105.31 42.89) rotate(-12.84)"/>
  <rect class="cls-6" x="147.11" y="493.75" width="7.08" height="7.08" transform="translate(-106.76 45.92) rotate(-12.84)"/>
  <rect class="cls-6" x="136.69" y="496.13" width="7.08" height="7.08" transform="translate(-107.55 43.67) rotate(-12.84)"/>
  <path class="cls-2" d="M20.72,549.88s34.14,30.1,86.97,39.91"/>
  <path class="cls-2" d="M12.15,571.26l26.48-8.46-3.1,22.36,24.16-10.08,2.01,20.92,24.32-10.98-.96,17.28c-48.85-8.94-80.42-36.34-80.42-36.34"/>
  <path class="cls-2" d="M208.4,613.7s38.34,14.75,86.13,6.47"/>
  <path class="cls-2" d="M208.35,635.36l19.6-16.03,4.86,21.48,17.56-17.47,8.85,19.23,16.81-19.43,6.19,17.55c-45.06,7.42-82.31-8.12-82.31-8.12"/>
  <path class="cls-2" d="M106.63,591.53s39.97,27.58,96.72,30.91"/>
  <path class="cls-2" d="M193.08,638.92c-61.63-3.17-106.1-31.76-107.48-32.65l10.33,5.51,25.73-10.18,5.3,23.51,23.05-11.6,11.8,21.29,22.77-13.15,8.5,17.27Z"/>
  <circle class="cls-7" cx="29.34" cy="573.31" r="3.27"/>
  <circle class="cls-7" cx="43.87" cy="573.7" r="3.27"/>
  <circle class="cls-7" cx="52.64" cy="585.61" r="3.27"/>
  <circle class="cls-7" cx="67.87" cy="585.86" r="3.27"/>
  <circle class="cls-7" cx="78.32" cy="594.95" r="3.27"/>
  <circle class="cls-7" cx="104.22" cy="601.09" r="3.27"/>
  <circle class="cls-7" cx="115.43" cy="612.61" r="3.27"/>
  <circle class="cls-7" cx="132.44" cy="613.39" r="3.27"/>
  <circle class="cls-7" cx="146.18" cy="624.14" r="3.27"/>
  <circle class="cls-7" cx="165.08" cy="623.91" r="3.27"/>
  <circle class="cls-7" cx="180.7" cy="631.42" r="3.27"/>
  <circle class="cls-7" cx="212.39" cy="623.54" r="3.27"/>
  <circle class="cls-7" cx="223.47" cy="632.11" r="3.27"/>
  <circle class="cls-7" cx="236.55" cy="627.85" r="3.27"/>
  <circle class="cls-7" cx="248.03" cy="635.59" r="3.27"/>
  <circle class="cls-7" cx="261.18" cy="629.85" r="3.27"/>
  <circle class="cls-7" cx="272.85" cy="635.69" r="3.27"/>
  <g>
    <path class="cls-10" d="M1057.98,587.98c7.55-.65,8.04-.73,8.04-6.5v-37.8c0-6.83-.41-6.91-8.12-7.56-.16-.81-.16-1.71,0-2.6,3.28,0,9.68.16,12.72.16,2.87,0,9.44-.16,12.47-.16.16.81.16,1.71,0,2.6-7.63.65-8.04.81-8.04,6.5v16.01h29.54v-14.96c0-6.83-.33-6.91-7.96-7.56-.08-.81-.08-1.71,0-2.6,3.12,0,9.52.16,12.56.16,3.2,0,9.19-.16,12.56-.16.08.81.08,1.71,0,2.6-7.71.65-8.12.81-8.12,6.5v37.8c0,6.75.25,6.91,8.12,7.56.08.89.08,1.79,0,2.6-3.45,0-9.6-.16-12.72-.16s-9.03.16-12.31.16c-.16-.81-.16-1.71,0-2.6,7.55-.65,7.88-.73,7.88-6.5v-19.26h-29.54v18.21c0,6.83.33,6.91,8.04,7.56.08.89.08,1.79,0,2.6-3.28,0-9.6-.16-12.64-.16s-9.19.16-12.47.16c-.16-.81-.16-1.71,0-2.6Z"/>
    <path class="cls-10" d="M1181.15,587.98c7.63-.73,7.96-.73,7.96-6.5v-37.8c0-6.75-.41-6.91-7.96-7.56-.08-.81-.08-1.71,0-2.6,5.66,0,7.3.16,16.74.16,12.88,0,24.62-.16,26.01-.16.41,3.98,1.07,8.21,1.8,12.92-.9.08-1.89.08-2.71,0-2.79-6.99-6.56-9.43-14.11-9.43h-10.75v22.19h4.51c7.8,0,9.44-.73,10.59-8.7.9-.16,1.97-.16,2.79,0-.25,8.86-.16,9.02-.16,10.57l.16,10.73c-.82.16-1.81.16-2.79,0-1.07-8.54-2.79-9.02-9.85-9.02h-5.25v17.64c0,3.66,0,5.93.16,6.58h11.24c9.52,0,12.47-2.84,16.41-11.05.82-.08,1.72-.08,2.54,0-1.15,6.1-1.89,10.97-2.38,14.55-9.77,0-24.78-.08-30.36-.08-7.71,0-10.26.16-14.61.16-.08-.81-.08-1.71,0-2.6Z"/>
    <path class="cls-10" d="M1304.82,580.42c0,6.83.08,6.91,7.8,7.56.17.81.17,1.79,0,2.6-3.28,0-9.27-.16-12.39-.16s-9.44.16-12.64.16c-.16-.81-.16-1.71,0-2.6,7.88-.57,8.21-.65,8.21-6.5v-37.88c0-6.67-.49-6.91-8.21-7.48-.16-.81-.16-1.71,0-2.6,3.12,0,10.18.16,12.56.16,2.87,0,9.52-.24,12.14-.24,10.26,0,19.61,3.82,19.61,14.31,0,6.91-4.02,12.6-13.13,15.36v.24c.9.73,1.72,1.71,2.79,3.25l8.62,12.36c5.58,7.97,6.73,8.37,13.7,9.02.16.81.16,1.79,0,2.6-3.2,0-9.19-.16-11.73-.16-1.81,0-2.87.08-4.6.08l-15.18-22.19c-1.89-2.76-2.87-3.25-5.42-3.5l-2.13-.24v15.85ZM1304.82,561.23c1.48.24,2.46.33,3.45.33,8.53,0,13.87-4.39,13.87-12.84,0-7.72-4.43-11.95-12.8-11.95-1.15,0-2.79.08-4.51.33v24.14Z"/>
    <path class="cls-10" d="M1415.85,580.42c0,6.83.08,6.91,8.12,7.56.16.81.16,1.79,0,2.6-3.37,0-9.52-.16-12.64-.16s-9.19.16-12.72.16c-.16-.81-.16-1.71,0-2.6,7.88-.73,8.21-.65,8.21-6.5v-37.8c0-6.75-.41-6.91-8.21-7.56-.08-.81-.08-1.71,0-2.6,3.36,0,9.77.16,12.88.16s9.27-.16,12.47-.16c.16.81.16,1.71,0,2.6-7.8.73-8.12.65-8.12,6.5v37.8Z"/>
    <path class="cls-10" d="M1495.69,587.98c8.12-.73,8.37-.65,8.37-6.5v-44.38h-5.91c-8.7,0-11,3.41-13.87,10.73-.82.08-1.8.08-2.63,0,.66-5.2,1.23-9.92,1.72-14.39,7.14.41,16,.41,25.28.41s18.3,0,25.36-.41c.41,4.39.82,9.19,1.48,14.39-.9.08-1.89.08-2.71,0-3.12-7.4-5.25-10.73-13.87-10.73h-5.83v43.32c0,6.83.16,6.91,8.37,7.56.16.81.16,1.79,0,2.6-3.45,0-9.77-.16-12.97-.16s-9.36.16-12.8.16c-.08-.81-.08-1.71,0-2.6Z"/>
    <path class="cls-10" d="M1582.68,587.98c6.07-.65,6.81-.89,10.09-9.27l17.73-45.03c1.15-.41,3.12-.65,4.35-.65l17.64,46.41c2.95,7.88,3.2,7.88,9.68,8.54.08.81.08,1.79,0,2.6-3.86,0-7.96-.16-11.98-.16-1.8,0-3.69,0-5.5.08h-1.56c-1.81.08-3.69.08-5.5.08-.16-.81-.16-1.71,0-2.6,5.33-.49,7.14-.65,7.14-2.68,0-.81-.33-1.87-.9-3.5l-4.68-12.52h-18.46l-4.1,11.22c-.74,2.11-1.15,3.33-1.15,4.39,0,2.36,2.05,2.6,7.22,3.09.08.89.08,1.79,0,2.6-3.69,0-7.3-.16-11-.16-3.12,0-5.75.16-9.03.16-.08-.81-.08-1.79,0-2.6ZM1617.97,565.87l-8.04-21.62-7.96,21.62h16Z"/>
    <path class="cls-10" d="M1696.01,562.78c0-18.21,12.06-30.08,30.85-30.08,4.1,0,9.27.65,12.72,1.63,2.05.57,3.78,1.06,5.5,1.06.66,0,1.31-.08,1.97-.24.16,4.8.41,9.84.82,15.36-.98.16-2.05.24-2.87.16-2.22-10-7.96-14.71-17.56-14.71-15.43,0-21.17,11.95-21.17,25.93,0,15.44,7.06,26.33,21.91,26.33,3.04,0,6.97-.57,10.42-1.87v-10.24c0-6.75-.41-6.83-9.03-7.48-.16-.81-.16-1.79,0-2.6,3.45,0,9.93.16,13.29.16s8.37-.16,11.57-.16c.08.81.08,1.71,0,2.52-6.73.81-6.98.81-6.98,6.58v2.6c0,5.12.33,8.7.57,10.16-7.55,2.52-14.85,3.82-21.34,3.82-18.55,0-30.69-10.65-30.69-28.94Z"/>
    <path class="cls-10" d="M1813.44,587.98c7.63-.73,7.96-.73,7.96-6.5v-37.8c0-6.75-.41-6.91-7.96-7.56-.08-.81-.08-1.71,0-2.6,5.66,0,7.3.16,16.74.16,12.88,0,24.62-.16,26.01-.16.41,3.98,1.07,8.21,1.81,12.92-.9.08-1.89.08-2.71,0-2.79-6.99-6.57-9.43-14.11-9.43h-10.75v22.19h4.51c7.8,0,9.44-.73,10.59-8.7.9-.16,1.97-.16,2.79,0-.25,8.86-.16,9.02-.16,10.57l.16,10.73c-.82.16-1.8.16-2.79,0-1.07-8.54-2.79-9.02-9.85-9.02h-5.25v17.64c0,3.66,0,5.93.17,6.58h11.24c9.52,0,12.47-2.84,16.41-11.05.82-.08,1.72-.08,2.54,0-1.15,6.1-1.89,10.97-2.38,14.55-9.77,0-24.78-.08-30.36-.08-7.71,0-10.26.16-14.61.16-.08-.81-.08-1.71,0-2.6Z"/>
    <path class="cls-10" d="M1990.61,587.98c7.55-.65,8.04-.73,8.04-6.5v-37.8c0-6.83-.41-6.91-8.12-7.56-.16-.81-.16-1.71,0-2.6,3.28,0,9.68.16,12.72.16,2.87,0,9.44-.16,12.47-.16.16.81.16,1.71,0,2.6-7.63.65-8.04.81-8.04,6.5v16.01h29.54v-14.96c0-6.83-.33-6.91-7.96-7.56-.08-.81-.08-1.71,0-2.6,3.12,0,9.52.16,12.56.16,3.2,0,9.19-.16,12.55-.16.08.81.08,1.71,0,2.6-7.71.65-8.12.81-8.12,6.5v37.8c0,6.75.25,6.91,8.12,7.56.08.89.08,1.79,0,2.6-3.45,0-9.6-.16-12.72-.16s-9.03.16-12.31.16c-.16-.81-.16-1.71,0-2.6,7.55-.65,7.88-.73,7.88-6.5v-19.26h-29.54v18.21c0,6.83.33,6.91,8.04,7.56.08.89.08,1.79,0,2.6-3.28,0-9.6-.16-12.64-.16s-9.19.16-12.47.16c-.16-.81-.16-1.71,0-2.6Z"/>
    <path class="cls-10" d="M2123.14,533.68c3.12,0,9.36-.16,12.64-.16.16.81.16,1.62,0,2.52-7.63.73-8.04.73-8.04,6.5v26.58c0,12.19,5.42,17.96,15.59,17.96,10.75,0,16.25-6.42,16.25-20.32v-22.27c0-7.56-.49-7.56-8.7-8.37-.16-.81-.16-1.62,0-2.52,2.95,0,7.8.16,10.34.16,2.71,0,7.47-.16,10.5-.16.16.81.16,1.63,0,2.52-7.63.81-8.12.73-8.12,7.32v25.04c0,14.47-7.47,22.92-22.81,22.92-13.13,0-22.07-6.26-22.07-19.83v-27.96c0-6.75-.41-6.91-8.12-7.56-.16-.81-.16-1.63,0-2.52,3.28,0,9.36.16,12.56.16Z"/>
    <path class="cls-10" d="M2240.24,590.42c-2.63,0-9.44.16-12.64.16-.08-.81-.08-1.71,0-2.6,7.63-.73,7.96-.73,7.96-6.5v-37.8c0-6.75-.41-6.91-7.96-7.56-.08-.81-.08-1.71,0-2.6,3.45,0,9.52.16,12.72.16,3.36,0,8.53-.16,11.16-.16,13.29,0,19.7,4.47,19.7,12.68,0,6.83-4.27,11.54-12.88,13.98v.08c8.78.73,16.17,5.45,16.17,14.47,0,7.72-5.33,13-12.31,14.87-3.04.81-6.56,1.06-10.5,1.06s-8.21-.24-11.41-.24ZM2244.59,559.45c.82.08,1.56.08,2.22.08,10.5,0,14.53-3.66,14.53-11.3s-3.94-11.38-11.9-11.38c-1.64,0-2.95.16-4.84.41v22.19ZM2244.59,581.07c0,2.68,0,4.55.08,5.69,2.38.49,4.43.73,6.48.73,8.45,0,13.29-4.15,13.29-12.68s-4.68-12.03-15.02-12.03c-1.31,0-3.12.08-4.84.24v18.04Z"/>
  </g>
  <rect class="cls-10" x="429.24" y="357.23" width="472.64" height="5.48" transform="translate(1025.5327 -305.5983) rotate(90)"/>
  <rect class="cls-10" x="2332.51" y="557.29" width="113.93" height="5.48"/>
  <rect class="cls-10" x="886.53" y="557.29" width="113.93" height="5.48"/>
</svg>